<?xml version="1.0" encoding="UTF-8" standalone="no"?>
<!-- Created with Inkscape (http://www.inkscape.org/) -->

<svg
   width="246.39941"
   height="27.290649"
   viewBox="0 0 246.39941 27.29065"
   version="1.1"
   id="svg1"
   xml:space="preserve"
   sodipodi:docname="branding.svg"
   inkscape:version="1.4.2 (ebf0e94, 2025-05-08)"
   xmlns:inkscape="http://www.inkscape.org/namespaces/inkscape"
   xmlns:sodipodi="http://sodipodi.sourceforge.net/DTD/sodipodi-0.dtd"
   xmlns="http://www.w3.org/2000/svg"
   xmlns:svg="http://www.w3.org/2000/svg"><sodipodi:namedview
     id="namedview1"
     pagecolor="#505050"
     bordercolor="#eeeeee"
     borderopacity="1"
     inkscape:showpageshadow="0"
     inkscape:pageopacity="0"
     inkscape:pagecheckerboard="0"
     inkscape:deskcolor="#505050"
     inkscape:zoom="2.4889193"
     inkscape:cx="2041.6492"
     inkscape:cy="347.13862"
     inkscape:window-width="1920"
     inkscape:window-height="1011"
     inkscape:window-x="0"
     inkscape:window-y="0"
     inkscape:window-maximized="1"
     inkscape:current-layer="svg1"><inkscape:page
       x="0"
       y="0"
       width="246.39941"
       height="27.290649"
       id="page2"
       margin="0"
       bleed="0" /></sodipodi:namedview><defs
     id="defs1" /><path
     style="font-weight:bold;font-size:37.3333px;font-family:Madhuban;-inkscape-font-specification:'Madhuban Bold';text-align:end;letter-spacing:0px;word-spacing:0px;text-anchor:end;fill:#f6f5f4;stroke-width:0.368978"
     d="M 21.653194,1.9786666 13.439894,13.327986 5.2264937,1.9786666 H -1.0632732e-4 V 26.917316 H 5.9731937 v -15.11999 l 7.0933003,9.29599 h 0.7467 l 7.0933,-9.29599 v 15.11999 h 5.9734 V 1.9786666 Z m 16.5759,1.008 c 0,1.71733 -1.2693,2.98666 -3.1733,2.98666 -1.8293,0 -3.1733,-1.19466 -3.1733,-2.98666 0,-1.71733 1.2693,-2.9866600292385 3.1733,-2.9866600292385 1.8293,0 3.1733,1.1946600292385 3.1733,2.9866600292385 z m -0.3733,6.30933 h -5.6 V 26.917316 h 5.6 z m 18.0693,4.8533294 V 9.2959966 h -6.3466 v -4.66666 l -8.96,8.3999894 v 1.12 h 3.36 v 7.13066 c 0,3.80799 2.5013,6.01066 6.72,6.01066 2.2773,0 4.6666,-0.59733 5.9733,-1.12 v -4.77866 c -1.1947,0.52266 -3.0613,1.008 -4.6667,1.008 -1.6426,0 -2.4266,-0.70934 -2.4266,-2.24 v -6.01066 z m 3.36,-13.96265943 V 26.917316 h 5.6 v -11.46133 c 0.9333,-1.04533 2.1653,-1.68 3.5093,-1.68 2.016,0 3.2107,1.344 3.2107,3.65867 v 9.48266 h 5.6 v -9.48266 c 0,-5.33866 -2.576,-8.5119894 -6.944,-8.5119894 -2.24,0 -4.0694,1.1573294 -5.376,2.6506594 V 0.18666657 Z m 28.1492,2.80000003 c 0,1.71733 -1.2693,2.98666 -3.1733,2.98666 -1.8293,0 -3.1733,-1.19466 -3.1733,-2.98666 0,-1.71733 1.2693,-2.9866600292385 3.1733,-2.9866600292385 1.8293,0 3.1733,1.1946600292385 3.1733,2.9866600292385 z m -0.3733,6.30933 h -5.6 V 26.917316 h 5.6 z m 4.7787,-9.10933003 V 26.917316 h 5.6 V 0.18666657 Z M 115.13559,27.290646 c 1.6054,0 3.1734,-0.37333 4.1067,-0.74667 v -3.54666 c -0.3733,0.112 -0.7467,0.18667 -1.232,0.18667 -0.672,0 -1.008,-0.37334 -1.008,-1.19467 v -6.38399 c 0,-4.10667 -2.8,-6.6826594 -7.4667,-6.6826594 -3.36,0 -5.8613,0.97066 -7.4666,1.8666594 v 4.85333 c 1.792,-0.97067 4.6293,-1.86667 6.72,-1.86667 1.8666,0 2.6133,0.784 2.6133,2.16534 v 0.29866 c -0.9333,0.112 -1.9787,0.29867 -3.2107,0.59733 -4.4053,1.008 -6.8693,3.136 -6.8693,5.936 0,2.65066 1.9413,4.51733 4.8533,4.51733 2.2774,0 4.144,-0.85867 5.5627,-1.97867 0.4853,1.344 1.6053,1.97867 3.3973,1.97867 z m -8.2133,-5.63733 c 0,-0.896 0.8213,-1.71733 2.128,-2.24 0.7093,-0.29866 1.5307,-0.52266 2.352,-0.70933 v 3.584 c -0.9707,0.59733 -1.904,0.896 -2.8,0.896 -1.008,0 -1.68,-0.59734 -1.68,-1.53067 z m 36.3999,-9.07199 v 4.85333 h 4.8533 v 3.91999 c -1.12,0.48534 -2.4266,0.70934 -4.2933,0.70934 -4.704,0 -7.84,-3.06133 -7.84,-7.616 0,-4.5546594 2.9867,-7.6159894 7.4667,-7.6159894 3.6586,0 6.9066,1.232 9.3333,2.98666 v -5.59999 c -2.1653,-1.64267 -5.8613,-2.61333 -9.3333,-2.61333 -8.064,0 -13.44,5.15199 -13.44,12.8426494 0,7.69066 5.5253,12.84266 13.8133,12.84266 4.032,0 8.1387,-1.04533 10.2667,-2.61333 v -12.09599 z m 28.3733,14.70932 c 1.6053,0 3.1733,-0.37333 4.1067,-0.74667 v -3.54666 c -0.3734,0.112 -0.7467,0.18667 -1.232,0.18667 -0.672,0 -1.008,-0.37334 -1.008,-1.19467 v -6.38399 c 0,-4.10667 -2.8,-6.6826594 -7.4667,-6.6826594 -3.36,0 -5.8613,0.97066 -7.4667,1.8666594 v 4.85333 c 1.792,-0.97067 4.6294,-1.86667 6.72,-1.86667 1.8667,0 2.6134,0.784 2.6134,2.16534 v 0.29866 c -0.9334,0.112 -1.9787,0.29867 -3.2107,0.59733 -4.4053,1.008 -6.8693,3.136 -6.8693,5.936 0,2.65066 1.9413,4.51733 4.8533,4.51733 2.2773,0 4.144,-0.85867 5.5627,-1.97867 0.4853,1.344 1.6053,1.97867 3.3973,1.97867 z m -8.2133,-5.63733 c 0,-0.896 0.8213,-1.71733 2.128,-2.24 0.7093,-0.29866 1.5306,-0.52266 2.352,-0.70933 v 3.584 c -0.9707,0.59733 -1.904,0.896 -2.8,0.896 -1.008,0 -1.68,-0.59734 -1.68,-1.53067 z m 39.5732,-4.21866 v 9.48266 h 5.6 v -9.48266 c 0,-5.33866 -2.576,-8.5119894 -6.944,-8.5119894 -2.6133,0 -5.04,1.1573294 -6.384,3.5093294 -1.1573,-2.24 -3.1733,-3.5093294 -5.936,-3.5093294 -2.24,0 -4.0693,1.1573294 -5.376,2.7999894 V 9.2959966 h -5.6 V 26.917316 h 5.6 v -11.46133 c 0.9334,-1.04533 2.1654,-1.68 3.5094,-1.68 2.016,0 3.2106,1.344 3.2106,3.65867 v 9.48266 h 5.6 v -9.48266 c 0,-2.27733 1.5307,-3.65867 3.5094,-3.65867 2.016,0 3.2106,1.344 3.2106,3.65867 z m 8.5866,0.672 c 0,5.52533 4.032,9.18399 10.08,9.18399 3.136,0 5.6747,-0.85867 7.0933,-1.86667 v -4.47999 c -1.792,0.74666 -3.584,1.49333 -6.3466,1.49333 -2.8,0 -4.6294,-1.12 -5.1147,-3.21066 h 12.5813 c 0.1494,-1.75467 0,-4.256 -1.2693,-6.34666 -1.1573,-1.904 -3.696,-3.9573294 -7.504,-3.9573294 -5.6,0 -9.52,3.6586594 -9.52,9.1839894 z m 5.7493,-1.68 c 0.4107,-1.71733 1.8294,-3.024 3.7707,-3.024 1.9787,0 3.36,1.232 3.6213,3.024 z m 22.3626,-3.024 c 1.8294,0 3.9947,0.82133 5.8987,1.94133 v -4.85333 c -1.0453,-0.7466594 -3.5467,-1.5679894 -6.272,-1.5679894 -4.4427,0 -6.7947,2.4639894 -6.7947,5.2266594 0,2.68799 1.7547,4.29333 4.48,5.41333 l 2.464,1.008 c 0.896,0.37333 1.2694,0.85866 1.2694,1.26933 0,0.56 -0.56,0.97066 -1.456,0.97066 -2.016,0 -4.9654,-0.896 -6.7574,-2.23999 v 4.85332 c 1.6054,1.008 4.0694,1.86667 6.944,1.86667 3.9574,0 6.8694,-1.94133 6.8694,-5.33866 0,-2.61333 -1.904,-4.032 -4.256,-5.11467 l -2.576,-1.19466 c -0.9334,-0.41067 -1.3814,-0.74667 -1.3814,-1.30667 0,-0.56 0.5974,-0.93333 1.568,-0.93333 z"
     id="text36-3"
     aria-label="Mithila Games" /></svg>
