<?xml version="1.0" encoding="UTF-8" standalone="no"?>
<!-- Created with Inkscape (http://www.inkscape.org/) -->

<svg
   width="246.39941"
   height="81.906464"
   viewBox="0 0 246.39941 81.906466"
   version="1.1"
   id="svg1"
   xml:space="preserve"
   sodipodi:docname="branding.svg"
   inkscape:version="1.4.2 (ebf0e94, 2025-05-08)"
   xmlns:inkscape="http://www.inkscape.org/namespaces/inkscape"
   xmlns:sodipodi="http://sodipodi.sourceforge.net/DTD/sodipodi-0.dtd"
   xmlns="http://www.w3.org/2000/svg"
   xmlns:svg="http://www.w3.org/2000/svg"><sodipodi:namedview
     id="namedview1"
     pagecolor="#505050"
     bordercolor="#eeeeee"
     borderopacity="1"
     inkscape:showpageshadow="0"
     inkscape:pageopacity="0"
     inkscape:pagecheckerboard="0"
     inkscape:deskcolor="#505050"
     inkscape:zoom="2.4889193"
     inkscape:cx="2041.6492"
     inkscape:cy="347.13862"
     inkscape:window-width="1920"
     inkscape:window-height="1011"
     inkscape:window-x="0"
     inkscape:window-y="0"
     inkscape:window-maximized="1"
     inkscape:current-layer="svg1"><inkscape:page
       x="0"
       y="0"
       width="246.39941"
       height="81.906464"
       id="page2"
       margin="0"
       bleed="0" /></sodipodi:namedview><defs
     id="defs1" /><g
     id="g36"
     transform="translate(-2194.0084,-80.95486)"
     inkscape:export-filename="mithila_games_logo_with_text.svg"
     inkscape:export-xdpi="96"
     inkscape:export-ydpi="96"><path
       style="font-weight:bold;font-size:37.3333px;font-family:Madhuban;-inkscape-font-specification:'Madhuban Bold';text-align:end;letter-spacing:0px;word-spacing:0px;text-anchor:end;fill:#f6f5f4;stroke-width:0.368978"
       d="m 2215.6618,137.54933 -8.2134,11.34932 -8.2133,-11.34932 h -5.2266 v 24.93865 h 5.9733 v -15.11999 l 7.0933,9.29599 h 0.7467 l 7.0933,-9.29599 v 15.11999 h 5.9733 v -24.93865 z m 16.5759,1.008 c 0,1.71733 -1.2693,2.98666 -3.1733,2.98666 -1.8293,0 -3.1733,-1.19466 -3.1733,-2.98666 0,-1.71733 1.2693,-2.98666 3.1733,-2.98666 1.8293,0 3.1733,1.19466 3.1733,2.98666 z m -0.3733,6.30933 h -5.6 v 17.62132 h 5.6 z m 18.0693,4.85333 v -4.85333 h -6.3467 V 140.2 l -8.9599,8.39999 v 1.12 h 3.3599 v 7.13066 c 0,3.80799 2.5014,6.01066 6.72,6.01066 2.2774,0 4.6667,-0.59733 5.9734,-1.12 v -4.77866 c -1.1947,0.52266 -3.0614,1.008 -4.6667,1.008 -1.6427,0 -2.4267,-0.70934 -2.4267,-2.24 v -6.01066 z m 3.36,-13.96266 v 26.73065 h 5.6 v -11.46133 c 0.9333,-1.04533 2.1653,-1.68 3.5093,-1.68 2.016,0 3.2106,1.344 3.2106,3.65867 v 9.48266 h 5.6 v -9.48266 c 0,-5.33866 -2.576,-8.512 -6.9439,-8.512 -2.24,0 -4.0694,1.15734 -5.376,2.65067 v -11.38666 z m 28.1492,2.8 c 0,1.71733 -1.2693,2.98666 -3.1733,2.98666 -1.8294,0 -3.1734,-1.19466 -3.1734,-2.98666 0,-1.71733 1.2694,-2.98666 3.1734,-2.98666 1.8293,0 3.1733,1.19466 3.1733,2.98666 z m -0.3733,6.30933 h -5.6 v 17.62132 h 5.6 z m 4.7786,-9.10933 v 26.73065 h 5.6 v -26.73065 z m 23.296,27.10398 c 1.6053,0 3.1733,-0.37333 4.1067,-0.74667 v -3.54666 c -0.3734,0.112 -0.7467,0.18667 -1.232,0.18667 -0.672,0 -1.008,-0.37334 -1.008,-1.19467 v -6.38399 c 0,-4.10667 -2.8,-6.68267 -7.4667,-6.68267 -3.36,0 -5.8613,0.97067 -7.4666,1.86667 v 4.85333 c 1.792,-0.97067 4.6293,-1.86667 6.7199,-1.86667 1.8667,0 2.6134,0.784 2.6134,2.16534 v 0.29866 c -0.9334,0.112 -1.9787,0.29867 -3.2107,0.59733 -4.4053,1.008 -6.8693,3.136 -6.8693,5.936 0,2.65066 1.9413,4.51733 4.8533,4.51733 2.2773,0 4.144,-0.85867 5.5627,-1.97867 0.4853,1.344 1.6053,1.97867 3.3973,1.97867 z m -8.2133,-5.63733 c 0,-0.896 0.8213,-1.71733 2.128,-2.24 0.7093,-0.29866 1.5306,-0.52266 2.352,-0.70933 v 3.584 c -0.9707,0.59733 -1.904,0.896 -2.8,0.896 -1.008,0 -1.68,-0.59734 -1.68,-1.53067 z m 36.3999,-9.07199 v 4.85333 h 4.8533 v 3.91999 c -1.12,0.48534 -2.4266,0.70934 -4.2933,0.70934 -4.704,0 -7.84,-3.06133 -7.84,-7.616 0,-4.55466 2.9867,-7.61599 7.4667,-7.61599 3.6586,0 6.9066,1.232 9.3333,2.98666 v -5.59999 c -2.1653,-1.64267 -5.8613,-2.61333 -9.3333,-2.61333 -8.064,0 -13.44,5.15199 -13.44,12.84265 0,7.69066 5.5253,12.84266 13.8133,12.84266 4.032,0 8.1387,-1.04533 10.2666,-2.61333 v -12.09599 z m 28.3733,14.70932 c 1.6053,0 3.1733,-0.37333 4.1066,-0.74667 v -3.54666 c -0.3733,0.112 -0.7466,0.18667 -1.232,0.18667 -0.672,0 -1.008,-0.37334 -1.008,-1.19467 v -6.38399 c 0,-4.10667 -2.8,-6.68267 -7.4666,-6.68267 -3.36,0 -5.8614,0.97067 -7.4667,1.86667 v 4.85333 c 1.792,-0.97067 4.6293,-1.86667 6.72,-1.86667 1.8667,0 2.6133,0.784 2.6133,2.16534 v 0.29866 c -0.9333,0.112 -1.9786,0.29867 -3.2106,0.59733 -4.4054,1.008 -6.8694,3.136 -6.8694,5.936 0,2.65066 1.9414,4.51733 4.8534,4.51733 2.2773,0 4.144,-0.85867 5.5626,-1.97867 0.4854,1.344 1.6054,1.97867 3.3974,1.97867 z m -8.2134,-5.63733 c 0,-0.896 0.8214,-1.71733 2.128,-2.24 0.7094,-0.29866 1.5307,-0.52266 2.352,-0.70933 v 3.584 c -0.9706,0.59733 -1.904,0.896 -2.8,0.896 -1.008,0 -1.68,-0.59734 -1.68,-1.53067 z m 39.5733,-4.21866 v 9.48266 h 5.6 v -9.48266 c 0,-5.33866 -2.576,-8.512 -6.944,-8.512 -2.6133,0 -5.04,1.15734 -6.384,3.50934 -1.1573,-2.24 -3.1733,-3.50934 -5.936,-3.50934 -2.24,0 -4.0693,1.15734 -5.376,2.8 v -2.42666 h -5.6 v 17.62132 h 5.6 v -11.46133 c 0.9333,-1.04533 2.1653,-1.68 3.5093,-1.68 2.016,0 3.2107,1.344 3.2107,3.65867 v 9.48266 h 5.6 v -9.48266 c 0,-2.27733 1.5307,-3.65867 3.5093,-3.65867 2.016,0 3.2107,1.344 3.2107,3.65867 z m 8.5866,0.672 c 0,5.52533 4.032,9.18399 10.08,9.18399 3.136,0 5.6746,-0.85867 7.0933,-1.86667 v -4.47999 c -1.792,0.74666 -3.584,1.49333 -6.3467,1.49333 -2.8,0 -4.6293,-1.12 -5.1146,-3.21066 h 12.5813 c 0.1493,-1.75467 0,-4.256 -1.2693,-6.34667 -1.1574,-1.90399 -3.696,-3.95733 -7.504,-3.95733 -5.6,0 -9.52,3.65867 -9.52,9.184 z m 5.7493,-1.68 c 0.4107,-1.71733 1.8293,-3.024 3.7707,-3.024 1.9786,0 3.36,1.232 3.6213,3.024 z m 22.3626,-3.024 c 1.8293,0 3.9947,0.82133 5.8987,1.94133 v -4.85333 c -1.0454,-0.74666 -3.5467,-1.568 -6.272,-1.568 -4.4427,0 -6.7947,2.464 -6.7947,5.22667 0,2.68799 1.7547,4.29333 4.48,5.41333 l 2.464,1.00799 c 0.896,0.37334 1.2693,0.85867 1.2693,1.26934 0,0.56 -0.56,0.97066 -1.456,0.97066 -2.016,0 -4.9653,-0.896 -6.7573,-2.24 v 4.85333 c 1.6053,1.008 4.0693,1.86667 6.944,1.86667 3.9573,0 6.8693,-1.94133 6.8693,-5.33866 0,-2.61333 -1.904,-4.032 -4.256,-5.11467 l -2.576,-1.19466 c -0.9333,-0.41067 -1.3813,-0.74667 -1.3813,-1.30667 0,-0.56 0.5973,-0.93333 1.568,-0.93333 z"
       id="text2"
       aria-label="Mithila Games" /><g
       id="g35"
       transform="matrix(0.31058754,0,0,0.31058754,1945.0583,61.972865)"
       style="fill:#f6f5f4;fill-opacity:1"><path
         style="baseline-shift:baseline;display:inline;overflow:visible;vector-effect:none;fill:#f6f5f4;fill-opacity:1;stroke:none;stroke-width:2.06742;stroke-linecap:round;stroke-dasharray:none;stroke-opacity:1;enable-background:accumulate;stop-color:#000000"
         d="m 1159.8846,233.93424 c -14.1453,-2.93637 -24.9065,-8.27502 -34.1407,-15.43387 -1.0757,1.78194 -2.2763,6.0084 2.6623,13.63569 6.8893,10.64007 9.0145,12.48831 5.918,19.79982 -3.0966,7.31144 5.6658,1.52211 5.6658,1.52211 0,0 2.2326,3.46638 4.349,2.83167 2.1161,-0.63456 2.9032,-6.89545 2.9032,-6.89545 0,0 4.3433,4.80198 7.1858,2.27929 2.8425,-2.52272 0.4093,-8.7129 0.4093,-8.7129 0,0 3.8767,-0.0687 6.0771,-2.0807 1.6242,-1.48522 -0.044,-5.13578 -1.0298,-6.94566 z"
         id="path29" /><path
         style="baseline-shift:baseline;display:inline;overflow:visible;vector-effect:none;fill:#f6f5f4;fill-opacity:1;stroke:none;stroke-width:2.06742;stroke-linecap:round;stroke-dasharray:none;stroke-opacity:1;enable-background:accumulate;stop-color:#000000"
         d="m 1292.3117,162.51761 c -4.6006,12.0148 -10.6583,21.95895 -16.5796,29.80304 4.5047,-0.93311 6.4746,-0.40108 9.159,0.33723 9.5497,2.62652 1.1671,9.97011 5.4959,7.02712 6.0007,-4.07962 3.991,-9.19718 3.991,-9.19718 0,0 4.7648,1.21456 6.971,-1.83732 2.2062,-3.0518 -4.589,-7.28509 -4.589,-7.28509 0,0 6.6804,-1.04287 5.6572,-5.70373 -0.8833,-4.02349 -3.9056,-4.67793 -3.9056,-4.67793 3.0748,-8.17611 -3.2377,-8.65704 -6.1999,-8.46614 z"
         id="path30" /><path
         style="baseline-shift:baseline;display:inline;overflow:visible;vector-effect:none;fill:#f6f5f4;fill-opacity:1;stroke:none;stroke-width:2.06742;stroke-linecap:round;stroke-dasharray:none;stroke-opacity:1;enable-background:accumulate;stop-color:#000000"
         d="m 1228.3302,150.54078 c 5.5884,0.91157 11.3341,0.93949 17.233,-0.50702 4.1194,-1.01016 7.7272,-2.34335 10.8973,-3.90624 1.5033,-2.71614 1.4651,-5.79367 -0.5218,-8.93776 -2.5354,-4.01195 -8.7192,-0.99425 -8.7192,-0.99425 0,0 0.2037,-5.87395 -4.3445,-7.02854 -4.0029,-1.01616 -7.481,2.86963 -7.481,2.86963 0,0 -1.4258,-6.44412 -5.5154,-4.87432 -4.6657,1.79099 -1.9677,4.3594 -4.6057,3.21819 -5.4097,-2.3403 -7.9315,6.28452 -6.3418,5.8375 4.8847,-1.37371 9.4187,-0.0207 11.9203,4.60783 1.8833,3.48471 -0.7469,7.55889 -2.5212,9.71498 z"
         id="path31" /><path
         style="baseline-shift:baseline;display:inline;overflow:visible;vector-effect:none;fill:#f6f5f4;fill-opacity:1;stroke:none;stroke-width:2.06742;stroke-linecap:round;stroke-dasharray:none;stroke-opacity:1;enable-background:accumulate;stop-color:#000000"
         d="m 1139.2221,134.89951 c 27.1972,-10.13662 37.4502,-4.15953 51.5651,1.30726 0.6902,-0.40833 1.4118,-1.06841 1.9803,-2.13452 1.5783,-2.95883 -6.7603,-5.36965 -6.7603,-5.36965 0,0 5.8197,-1.74535 5.0301,-5.70413 -0.7895,-3.95882 -8.802,-2.82836 -8.802,-2.82836 0,0 3.0543,-3.73962 0.4551,-7.83184 -2.5993,-4.09212 -9.68,1.67026 -9.68,1.67026 0,0 0.6315,-2.33689 -0.8969,-5.57707 -1.5285,-3.24003 -9.6704,-1.6137 -7.9466,0.55372 1.7237,2.16746 3.6186,6.03332 0.2267,10.17237 -3.3917,4.13897 -6.9782,3.58407 -16.0215,6.71359 -6.3914,2.21182 -8.4766,6.6283 -9.15,9.02837 z"
         id="path32" /><path
         style="baseline-shift:baseline;display:inline;overflow:visible;vector-effect:none;fill:#f6f5f4;fill-opacity:1;stroke:none;stroke-width:2.06742;stroke-linecap:round;stroke-dasharray:none;stroke-opacity:1;enable-background:accumulate;stop-color:#000000"
         d="m 1138.4753,140.79041 c 4.7929,12.0116 9.4855,36.23464 -13.0955,63.39791 -1.0985,1.32141 -2.1805,2.50962 -3.2461,3.57202 14.2178,13.66965 31.3482,22.45964 61.1009,23.32434 39.6081,1.15126 67.532,-21.52955 67.532,-21.52955 0,0 46.2237,-32.37442 43.1783,-95.38571 -2.0834,-43.104415 20.9041,-52.680019 20.9041,-52.680019 -36.8744,-4.266315 -35.4777,29.471354 -35.4777,29.471354 0,0 -17.8995,-11.80383 -35.3709,0.124184 -13.3334,9.103101 -11.9607,25.388371 -11.9607,25.388371 9.259,-20.526143 23.7187,-18.853899 31.6673,-14.39136 9.6925,5.44166 16.9104,18.45564 12.8692,27.51229 -4.0412,9.05673 -11.4304,21.4421 -30.889,26.21376 -19.4585,4.77154 -37.1539,-7.41516 -52.9287,-12.87429 -15.7748,-5.4591 -24.7302,-13.38004 -53.5904,-2.40936 -0.2319,0.0881 -0.4628,0.177 -0.6928,0.26606 z"
         id="path33" /><path
         style="baseline-shift:baseline;display:inline;overflow:visible;vector-effect:none;fill:#f6f5f4;fill-opacity:1;stroke:none;stroke-width:1.98477;stroke-linecap:round;stroke-dasharray:none;stroke-opacity:1;enable-background:accumulate;stop-color:#000000"
         d="m 1104.5626,159.69329 c -6.5805,5.41033 -9.9067,9.49544 -9.9067,9.49544 0,0 -2.8001,3.13486 12.5293,22.18806 3.5958,4.46894 7.1682,8.64489 10.9239,12.46306 0.8303,-0.86215 1.6711,-1.80368 2.522,-2.8291 20.3873,-24.5679 17.5963,-46.63268 13.3643,-58.76483 -13.0173,5.30144 -22.8523,12.03705 -29.4328,17.44737 z m 7.1474,-1.86234 a 5.2229566,5.4299138 50.229551 0 1 7.4942,0.70747 5.2229566,5.4299138 50.229551 0 1 -0.9991,7.47406 5.2229566,5.4299138 50.229551 0 1 -7.4944,-0.70735 5.2229566,5.4299138 50.229551 0 1 0.9993,-7.47418 z"
         id="path34"
         inkscape:transform-center-x="17.438309"
         inkscape:transform-center-y="29.437226" /></g></g></svg>
